<svg xmlns="http://www.w3.org/2000/svg" viewBox="0 0 446.98 519.26"><title>is_tab_black</title><g id="Layer_2" data-name="Layer 2"><g id="IS"><path d="M369.41,104.63C309.26,42.75,260,8.11,221.08,1,182.35-6.22,138.26,25,88.34,94.24Q13.94,198.16,1.43,260.68-10.85,323.5,82.67,401.44,176,479.16,238.24,512c41.26,21.89,83.62-5.67,127.23-82Q430.9,315.16,445,256.42,459.41,197.38,369.41,104.63ZM177.6,314.81a15.19,15.19,0,0,1-11.47,4.9,16,16,0,0,1-11.73-4.9,16.52,16.52,0,0,1,0-23,16.42,16.42,0,0,1,11.73-4.65,16.23,16.23,0,0,1,11.47,27.65Zm4.91-50.65q0,7.68-12.35,7.69c-2.95,0-5.45-.08-7.44-.25-2.29-.12-4-.21-5.12-.21-5.24-1.12-7.86-3.61-7.86-7.44V182c0-3.82,2.5-6.24,7.45-7.24,1.41-.12,3.2-.2,5.32-.2,2.29-.13,4.82-.21,7.65-.21q12.35,0,12.35,7.65Zm186.38,18.09c0,7.82-1.33,14.05-4,18.71q-10,18.27-60,18.3H216.57q-11.3,0-11.31-11.27c0-4.7.87-8.44,2.57-11.27,1.29-2.12,4.12-3.2,8.49-3.2h88.53q33.61,0,33.6-10.86v-12.1q0-10.67-32.31-11.48l-42.58-1.49c-2.13-.13-4.95-.29-8.49-.46-3.7-.12-8.31-.41-13.84-.83-9.53-1.12-16.6-3.49-21.29-7.11-9.95-7.61-14.89-16.3-14.89-26.07V212.47q0-26.39,28.32-34.47,14-3.62,48.69-3.62c7.69,0,11.52,4.7,11.52,14.05,0,5.7-2.29,9.24-6.82,10.65-.71.42-4.7.62-11.94.62q-39.54,0-39.54,12.56v9.57c0,4.95,3.95,8.15,11.89,9.56a72.25,72.25,0,0,0,10,1.08c3.41.13,8.07.21,14,.21h34.26c16.76,0,29.86,2.12,39.38,6.4q24,10,24,30.61Z"/></g></g></svg>